<svg xmlns="http://www.w3.org/2000/svg" width="320" height="320">
  <path d="M160 112l42 24v48l-42 24-42-24v-48l42-24zm36-84l-36 36m-36-36l36 36v48M64 63l13 49m-49 13l49-13 41 24m-90 59l49 13m-13 49l13-49 41-24m6 108l36-36m36 36l-36-36v-48m96 49l-13-49m49-13l-49 13-41-24m90-59l-49-13m13-49l-13 49-41 24" fill="none" stroke="#000" stroke-width="10.7"/>
  <path d="M160 193l13 7v16l-13 7-13-7v-16l13-7zm0 0l13 7v16l-13 7-13-7v-16l13-7zm28-17l14-7 13 7v16l-13 7-14-7v-16zm0-32v-16l14-7 13 7v16l-13 7-14-7zm-28-17l-13-7v-16l13-7 13 7v16l-13 7zm-28 17l-14 7-13-7v-16l13-7 14 7v16zm0 32v16l-14 7-13-7v-16l13-7 14 7zm28-97l-13-7V56l13-7 13 7v16l-13 7zm-22-37l-19 5-14-14 5-19 19-5 14 14-5 19zm44 0l-5-19 14-14 19 5 5 19-14 14-19-5zm-92 78l-13 7-13-7v-16l13-7 13 7v16zm-44 0l-5 19-18 5-14-14 5-18 19-5 13 13zm23-39l-19-5-5-18 14-14 18 5 5 19-13 13zm21 119v16l-13 7-13-7v-16l13-7 13 7zm-21 39l13 13-5 19-18 5-14-14 5-18 19-5zm-23-39l-13 13-19-5-5-18 14-14 18 5 5 19zm114 41l13 7v16l-13 7-13-7v-16l13-7zm22 37l19-5 14 14-5 19-19 5-14-14 5-19zm-44 0l5 19-14 14-19-5-5-19 14-14 19 5zm92-78l13-7 13 7v16l-13 7-13-7v-16zm44 0l5-19 18-5 14 14-5 18-19 5-13-13zm-23 39l19 5 5 18-14 14-18-5-5-19 13-13zm-21-119v-16l13-7 13 7v16l-13 7-13-7zm21-39l-13-13 5-19 18-5 14 14-5 18-19 5zm23 39l13-13 19 5 5 18-14 14-18-5-5-19z"/>
</svg>
