<svg version="1.2" baseProfile="tiny-ps" xmlns="http://www.w3.org/2000/svg" width="300" height="300">
  <style>
    .st{fill:none;stroke:#000;stroke-width:11}
    @media (prefers-color-scheme:dark) {
      .st{fill:none;stroke:#fff;stroke-width:11}
      .bb{fill:#fff}
    }
  </style>
  <path class="st" d="M150 102l41 24v48l-41 24-41-24v-48l41-24zM186 19l-36 36m-36-36l36 36v47M54 53l13 49m-48 13l48-13 42 24m-90 59l48 13m-13 49l13-49 42-24m5 107l36-36m36 36l-36-36v-47m96 49l-13-49m48-13l-48 13-42-24m90-59l-48-13m13-49l-13 49-42 24"/>
  <path class="bb" d="M178 166l13-7 13 7v15l-13 8-13-8v-15zm0-32v-15l13-8 13 8v15l-13 7-13-7zm-28-16l-13-8V95l13-8 13 8v15l-13 8zm-28 16l-13 7-13-7v-15l13-8 13 8v15zm0 32v15l-13 8-13-8v-15l13-7 13 7zm28-96l-13-8V47l13-8 13 8v15l-13 8zm-22-38l-19 5-13-13 5-19 18-5 14 14-5 18zm44 0l-5-18 14-14 18 5 5 19-13 13-19-5zm-91 78l-14 8-13-8V95l13-8 14 8v15zm-44 0l-5 19-18 5-14-14 5-18 18-5 14 13zm22-38l-18-5-5-18 13-14 19 5 5 18-14 14zm22 118v15l-14 8-13-8v-15l13-8 14 8zm-22 38l14 14-5 18-19 5-13-14 5-18 18-5zm-22-38l-14 13-18-5-5-18 14-14 18 5 5 19zm113 40l13 8v15l-13 8-13-8v-15l13-8zm22 38l19-5 13 13-5 19-18 5-14-14 5-18zm-44 0l5 18-14 14-18-5-5-19 13-13 19 5zm91-78l14-8 13 8v15l-13 8-14-8v-15zm44 0l5-19 18-5 14 14-5 18-18 5-14-13zm-22 38l18 5 5 18-13 14-19-5-5-18 14-14zm-22-118V95l14-8 13 8v15l-13 8-14-8zm22-38l-14-14 5-18 19-5 13 14-5 18-18 5zm22 38l14-13 18 5 5 18-14 14-18-5-5-19zM150 213l-13-7v-16l13-7 13 7v16l-13 7z"/>
</svg>
