<svg version="1.2" baseProfile="tiny-ps" xmlns="http://www.w3.org/2000/svg" width="100%" height="100%" viewBox="0 0 16 16">
  <path d="M8 5.6l2.05 1.2v2.4l-2.05 1.2-2.05-1.2v-2.4l2.05-1.2zM9.8 1.45l-1.8 1.8m-1.8-1.8 1.8 1.8v2.35M3.2 3.15l.65 2.45m-2.4.65 2.4-.65 2.1 1.2m-4.5 2.95 2.4.65m-.65 2.45.65-2.45 2.1-1.2m.25 5.35 1.8-1.8m1.8 1.8-1.8-1.8v-2.35m4.8 2.45-.65-2.45m2.4-.65-2.4.65-2.1-1.2m4.5-2.95-2.4-.65m.65-2.45-.65 2.45-2.1 1.2" stroke="#000000" stroke-width="0.5" fill="none"/>
  <path fill="#000000" d="M9.4 8.8l.65-.35.65.35v.75l-.65.4-.65-.4v-.75zm0-1.6v-.75l.65-.4.65.4v.75l-.65.35-.65-.35zm-1.4-.8-.65-.4V5.25l.65-.4.65.4v.75l-.65.4zm-1.4.8-.65.35-.65-.35v-.75l.65-.4.65.4v.75zm0 1.6v.75l-.65.4-.65-.4v-.75l.65-.35.65.35zm1.4-4.8-.65-.4V2.85l.65-.4.65.4v.75l-.65.4zm-1.1-1.9-.95.25-.65-.65.25-.95.9-.25.7.7-.25.9zm2.2 0-.25-.9.7-.7.9.25.25.95-.65.65-.95-.25zm-4.55 3.9-.7.4-.65-.4V5.25l.65-.4.7.4v.75zm-2.2 0-.25.95-.9.25-.7-.7.25-.9.9-.25.7.65zm1.1-1.9-.9-.25-.25-.9.65-.7.95.25.25.9-.7.7zm1.1 5.9v.75l-.7.4-.65-.4v-.75l.65-.4.7.4zm-1.1 1.9.7.7-.25.9-.95.25-.65-.7.25-.9.9-.25zm-1.1-1.9-.7.65-.9-.25-.25-.9.7-.7.9.25.25.95zm5.65 2 .65.4v.75l-.65.4-.65-.4v-.75l.65-.4zm1.1 1.9.95-.25.65.65-.25.95-.9.25-.7-.7.25-.9zm-2.2 0 .25.9-.7.7-.9-.25-.25-.95.65-.65.95.25zm4.55-3.9.7-.4.65.4v.75l-.65.4-.7-.4v-.75zm2.2 0 .25-.95.9-.25.7.7-.25.9-.9.25-.7-.65zm-1.1 1.9.9.25.25.9-.65.7-.95-.25-.25-.9.7-.7zm-1.1-5.9V5.25l.7-.4.65.4v.75l-.65.4-.7-.4zm1.1-1.9-.7-.7.25-.9.95-.25.65.7-.25.9-.9.25zm1.1 1.9.7-.65.9.25.25.9-.7.7-.9-.25-.25-.95zM8 11.15l-.65-.35v-.8l.65-.35.65.35v.8l-.65.35z"/>
</svg>
